PathFileType	3	(X/Y/Z)	C:\Files\Projects\EMG to Moment Estimation\Newest Patten Data\NSFproject\Patient 4\Session 1\Patient4_Static01.TRC
DataRate	CameraRate	NumFrames	NumMarkers	Units	OrigDataRate	OrigDataStartFrame	OrigNumFrames
100.0	100.0	8	47	mm	100.0	683	910	
Frame#	Time	Patient 4:Sacral		Patient 4:Lumbar		Patient 4:L.Shoulder		Patient 4:Chest		Patient 4:R.Shoulder		Patient 4:Neck		Patient 4:R.ASIS		Patient 4:L.ASIS		Patient 4:R.Thigh.Superior		Patient 4:R.Thigh.Lateral		Patient 4:R.Thigh.Inferior		Patient 4:R.Knee.Lateral		Patient 4:R.Patella		Patient 4:R.Knee.Medial		Patient 4:L.Thigh.Superior		Patient 4:L.Thigh.Lateral		Patient 4:L.Thigh.Inferior		Patient 4:L.Patella		Patient 4:L.Knee.Medial		Patient 4:L.Knee.Lateral		Patient 4:L.Shank.Superior		Patient 4:L.Shank.Lateral		Patient 4:L.Shank.Inferior		Patient 4:L.Ankle.Medial		Patient 4:L.Ankle.Lateral		Patient 4:R.Shank.Superior		Patient 4:R.Shank.Lateral		Patient 4:R.Shank.Inferior		Patient 4:R.Ankle.Lateral		Patient 4:R.Ankle.Medial		Patient 4:R.Heel		Patient 4:R.Midfoot.Superior		Patient 4:R.Midfoot.Lateral		Patient 4:R.Toe.Lateral		Patient 4:R.Toe.Medial		Patient 4:R.Toe		Patient 4:L.Heel		Patient 4:L.Midfoot.Lateral		Patient 4:L.Toe.Lateral		Patient 4:L.Midfoot.Superior		Patient 4:L.Toe		Patient 4:L.Toe.Medial		Patient 4:L.Elbow		Patient 4:L.Wrist		Patient 4:R.Elbow		Patient 4:R.Wrist		Patient 4:Ground		
		X1	Y1	Z1	X2	Y2	Z2	X3	Y3	Z3	X4	Y4	Z4	X5	Y5	Z5	X6	Y6	Z6	X7	Y7	Z7	X8	Y8	Z8	X9	Y9	Z9	X10	Y10	Z10	X11	Y11	Z11	X12	Y12	Z12	X13	Y13	Z13	X14	Y14	Z14	X15	Y15	Z15	X16	Y16	Z16	X17	Y17	Z17	X18	Y18	Z18	X19	Y19	Z19	X20	Y20	Z20	X21	Y21	Z21	X22	Y22	Z22	X23	Y23	Z23	X24	Y24	Z24	X25	Y25	Z25	X26	Y26	Z26	X27	Y27	Z27	X28	Y28	Z28	X29	Y29	Z29	X30	Y30	Z30	X31	Y31	Z31	X32	Y32	Z32	X33	Y33	Z33	X34	Y34	Z34	X35	Y35	Z35	X36	Y36	Z36	X37	Y37	Z37	X38	Y38	Z38	X39	Y39	Z39	X40	Y40	Z40	X41	Y41	Z41	X42	Y42	Z42	X43	Y43	Z43	X44	Y44	Z44	X45	Y45	Z45	X46	Y46	Z46	X47	Y47	Z47	
683	6.82	522.09601	993.38464	-645.31323	519.21051	1061.6324	-655.01361	350.24942	1440.1086	-745.47205	508.96609	1378.7474	-855.10181	687.62463	1433.2662	-768.47998	505.34314	1495.3141	-727.63049	634.31818	946.99097	-883.02686	357.64929	972.34088	-858.29053	602.54608	740.01581	-909.06232	671.32147	637.66467	-822.26666	590.16309	575.45673	-885.10187	652.72559	485.64548	-835.21991	596.00891	485.99411	-876.09283	544.75238	462.93536	-812.71936	364.62149	748.76971	-890.39758	299.23541	650.51819	-783.25928	347.54941	557.20734	-858.1759	350.52646	487.52753	-850.69861	399.29681	489.76178	-818.73328	299.2088	509.95309	-804.81354	332.56641	419.99731	-824.89508	266.25848	315.57318	-733.17621	322.25879	194.44405	-781.97522	365.31973	96.50074	-741.76276	277.48386	85.284355	-717.85425	611.2489	398.97357	-844.34259	689.2807	304.16147	-775.53247	624.06537	203.46704	-799.86823	669.38507	85.120262	-735.6189	577.30255	106.00041	-748.96985	625.1795	43.864975	-652.84094	630.60089	97.734688	-827.85498	684.2937	36.971432	-747.44507	696.01508	31.719559	-833.95105	576.90393	29.251064	-859.29999	639.13513	44.672119	-950.97382	333.68964	38.333702	-650.94104	263.90314	35.262867	-735.39874	242.34578	33.517174	-830.5755	300.62308	96.295464	-813.92377	291.41351	45.27557	-944.93402	357.25214	27.325171	-855.70367	241.04826	1081.7981	-742.02948	238.96892	825.48047	-785.70007	776.34082	1075.2589	-754.16431	749.36877	823.42377	-815.5097	329.05222	9.6649132	-147.07524
684	6.83	522.13275	993.36725	-645.34637	519.24677	1061.6147	-655.02002	350.29584	1440.0974	-745.43127	508.96628	1378.7388	-855.08319	687.6261	1433.2659	-768.47192	505.35126	1495.3104	-727.60529	634.31879	946.99127	-883.02728	357.66843	972.34607	-858.24396	602.52777	740.01837	-909.06171	671.46265	637.64832	-822.36249	590.1579	575.45532	-885.13019	652.70691	485.63461	-835.26453	596.01617	485.98837	-876.13696	544.75201	462.93579	-812.71997	364.63367	748.77588	-890.39899	299.2406	650.50037	-783.24469	347.56027	557.20984	-858.19226	350.53055	487.5166	-850.6875	399.29935	489.75571	-818.73138	299.20499	509.94604	-804.81171	332.57095	419.99612	-824.90515	266.2774	315.55084	-733.17883	322.25357	194.45609	-781.97461	365.33603	96.498718	-741.7572	277.47272	85.290215	-717.8587	611.24957	398.97363	-844.34137	689.31476	304.16885	-775.56934	624.05988	203.46289	-799.87408	669.35834	85.122696	-735.64069	577.26849	106.0042	-748.99402	625.1626	43.881882	-652.84741	630.58167	97.747551	-827.88068	684.30341	36.958904	-747.46411	696.02893	31.71257	-833.93988	576.8913	29.230419	-859.2934	639.10852	44.663986	-950.95068	333.68127	38.333141	-650.95258	263.89374	35.261539	-735.41217	242.35287	33.525555	-830.57581	300.6391	96.271034	-813.91547	291.40408	45.282207	-944.92444	357.25671	27.318521	-855.72205	241.06311	1081.8021	-741.98578	238.9753	825.47009	-785.66492	776.37677	1075.276	-754.1911	749.41754	823.41351	-815.55664	329.06924	9.671072	-147.07434
685	6.84	522.12354	993.37335	-645.33325	519.23383	1061.6366	-655.01434	350.29962	1440.0928	-745.39496	508.9808	1378.7488	-855.05353	687.65051	1433.252	-768.46844	505.38248	1495.3047	-727.58771	634.29639	946.97717	-883.04169	357.67474	972.35632	-858.24707	602.52588	740.0238	-909.08398	671.45593	637.63159	-822.39502	590.15283	575.45367	-885.14758	652.70447	485.62286	-835.27173	596.01001	485.99493	-876.13275	544.73944	462.96887	-812.74579	364.6449	748.78845	-890.40271	299.28745	650.52252	-783.23364	347.56693	557.20776	-858.18292	350.52951	487.53409	-850.70001	399.31067	489.78238	-818.742	299.21698	509.96191	-804.80878	332.58078	419.99649	-824.91248	266.28436	315.56747	-733.15948	322.25858	194.46014	-781.97168	365.33945	96.515961	-741.76471	277.4696	85.301674	-717.86353	611.28595	398.98727	-844.34662	689.33124	304.177	-775.62231	624.0506	203.45393	-799.87927	669.35858	85.103218	-735.61224	577.28571	106.01051	-748.96069	625.16504	43.882706	-652.83472	630.59338	97.74218	-827.87103	684.39972	37.007641	-747.5484	696.01733	31.713451	-833.95239	576.89832	29.241692	-859.29736	639.13617	44.678806	-950.95343	333.67349	38.330479	-650.97943	263.88748	35.256226	-735.41266	242.32881	33.543659	-830.58862	300.63202	96.268661	-813.90491	291.39935	45.281788	-944.92334	357.24136	27.30407	-855.70856	241.09695	1081.8007	-741.95044	238.9884	825.45624	-785.64148	776.35687	1075.2235	-754.19336	749.43079	823.41357	-815.61322	329.07047	9.6590052	-147.06111
686	6.85	522.11652	993.31793	-645.36023	519.28284	1061.583	-655.03131	350.31662	1440.0878	-745.37372	508.99088	1378.7523	-855.05066	687.67474	1433.2531	-768.46832	505.40607	1495.3053	-727.55219	634.29578	946.97668	-883.04114	357.68527	972.35834	-858.23352	602.54791	740.02899	-909.09918	671.4588	637.62256	-822.42865	590.17633	575.46112	-885.17255	652.70917	485.58527	-835.26483	596.03467	485.96753	-876.18048	544.73639	462.95483	-812.78503	364.63962	748.79108	-890.39203	299.27255	650.51855	-783.2489	347.57709	557.22028	-858.18701	350.5332	487.5318	-850.70685	399.32498	489.78439	-818.77203	299.21713	509.94992	-804.82428	332.57724	419.99985	-824.92365	266.28671	315.5777	-733.18018	322.27573	194.45419	-781.97473	365.34738	96.509804	-741.75983	277.46674	85.299332	-717.85895	611.29102	398.96457	-844.36993	689.29468	304.16415	-775.59564	624.04541	203.437	-799.87103	669.38446	85.110794	-735.63965	577.28632	106.00334	-748.95215	625.18622	43.879711	-652.83246	630.56342	97.778038	-827.94733	684.38409	37.008263	-747.52722	696.01367	31.68429	-833.93451	576.90106	29.233721	-859.3009	639.125	44.674774	-950.96381	333.67178	38.318981	-650.9624	263.89511	35.265121	-735.41339	242.32625	33.53891	-830.5965	300.62381	96.28006	-813.91034	291.39597	45.28471	-944.93835	357.28278	27.322128	-855.72284	241.10663	1081.7922	-741.89886	239.02544	825.47577	-785.61365	776.39209	1075.2385	-754.24414	749.41528	823.39832	-815.63794	329.06378	9.6733103	-147.06172
687	6.86	522.15637	993.30823	-645.37628	519.30157	1061.6045	-655.02203	350.34195	1440.0984	-745.34296	509.01477	1378.7695	-855.03265	687.73804	1433.2012	-768.38336	505.42612	1495.3075	-727.54266	634.30676	946.96448	-883.06763	357.7074	972.35333	-858.18933	602.54407	740.04572	-909.12085	671.47876	637.61719	-822.44006	590.16071	575.45502	-885.1875	652.70679	485.62952	-835.32104	596.01489	485.98233	-876.19763	544.76044	462.96387	-812.77863	364.64423	748.79736	-890.39368	299.32266	650.49268	-783.21814	347.57642	557.22211	-858.19409	350.55353	487.52237	-850.72687	399.33002	489.77771	-818.79547	299.23514	509.96005	-804.82257	332.59647	420.01028	-824.94226	266.27866	315.59384	-733.18329	322.27631	194.45399	-781.97357	365.34778	96.525032	-741.78284	277.47137	85.311272	-717.86505	611.25739	398.96808	-844.40167	689.32538	304.1828	-775.61823	624.05865	203.46144	-799.88861	669.39667	85.121468	-735.65222	577.28955	106.02037	-748.98718	625.16144	43.882568	-652.84735	630.59326	97.74086	-827.86938	684.36499	37.003342	-747.50568	696.01135	31.715374	-833.95251	576.90393	29.250971	-859.29999	639.12988	44.677254	-950.97546	333.70007	38.352993	-650.96637	263.89966	35.268127	-735.4126	242.33914	33.542156	-830.58496	300.62677	96.284088	-813.91193	291.40778	45.285221	-944.93188	357.2674	27.332476	-855.7135	241.12305	1081.8094	-741.88104	239.00919	825.46643	-785.58508	776.44598	1075.2542	-754.30536	749.43994	823.40717	-815.67865	329.06638	9.6691275	-147.07051
688	6.87	522.17004	993.30255	-645.40735	519.31628	1061.5994	-655.03607	350.34421	1440.1019	-745.32599	509.02509	1378.7644	-855.02521	687.75763	1433.2109	-768.4071	505.43076	1495.2904	-727.5274	634.30225	946.9494	-883.07288	357.70764	972.35315	-858.18909	602.54559	740.02924	-909.14124	671.48523	637.61975	-822.48718	590.14996	575.45886	-885.22693	652.69281	485.61548	-835.38721	596.02814	485.96381	-876.24927	544.75024	462.93109	-812.81061	364.64502	748.80164	-890.41309	299.29199	650.52631	-783.22931	347.58844	557.21295	-858.2063	350.55298	487.5253	-850.73438	399.33902	489.77063	-818.81903	299.23795	509.95767	-804.83575	332.58856	419.98605	-824.94867	266.28882	315.556	-733.18878	322.27353	194.45901	-781.97565	365.35089	96.518631	-741.79266	277.48337	85.298744	-717.8559	611.27332	398.9483	-844.39716	689.3479	304.17093	-775.65765	624.03827	203.43118	-799.89044	669.38184	85.113747	-735.66248	577.28552	105.99825	-748.93768	625.17096	43.874874	-652.83337	630.59515	97.731186	-827.87909	684.38751	37.015881	-747.53418	695.99768	31.710468	-833.9422	576.89685	29.239717	-859.29602	639.12421	44.670349	-950.97388	333.69131	38.325024	-650.95575	263.9267	35.242538	-735.40118	242.33626	33.53492	-830.59387	300.62878	96.277504	-813.90448	291.41925	45.284241	-944.93396	357.21765	27.296295	-855.69775	241.12108	1081.8092	-741.88043	239.02225	825.46448	-785.57343	776.45135	1075.222	-754.30615	749.45337	823.42285	-815.70306	329.07504	9.6551495	-147.05902
689	6.88	522.15582	993.2713	-645.46198	519.30225	1061.5905	-654.9845	350.36975	1440.0885	-745.29919	509.01913	1378.7722	-855.01263	687.7829	1433.2025	-768.41272	505.45239	1495.2723	-727.49493	634.34503	946.94983	-883.0827	357.71307	972.36365	-858.19354	602.54333	740.02618	-909.16803	671.44202	637.58667	-822.5083	590.15118	575.4635	-885.24988	652.70905	485.60779	-835.42609	596.02393	485.95261	-876.26886	544.72778	462.92737	-812.86298	364.64966	748.7934	-890.40332	299.33176	650.52692	-783.23206	347.58405	557.21722	-858.21545	350.54846	487.51123	-850.73529	399.33908	489.77069	-818.81921	299.24319	509.95218	-804.84302	332.59637	419.99371	-824.95264	266.29282	315.54105	-733.17859	322.26825	194.44748	-782.00342	365.35043	96.522583	-741.77441	277.47885	85.287964	-717.85352	611.26678	398.952	-844.44879	689.34155	304.17056	-775.69574	624.04364	203.41588	-799.90265	669.38593	85.120331	-735.66174	577.25458	106.00854	-748.96997	625.15143	43.875164	-652.8468	630.59155	97.742355	-827.86969	684.29315	36.950443	-747.45404	696.01819	31.722757	-833.96368	576.87372	29.237116	-859.28979	639.11322	44.6661	-950.97162	333.68896	38.327095	-650.97845	263.89951	35.259197	-735.40143	242.33766	33.520477	-830.58752	300.62189	96.260704	-813.90692	291.40964	45.277233	-944.92725	357.27246	27.318386	-855.72955	241.16527	1081.7896	-741.83478	239.04651	825.46918	-785.5575	776.46918	1075.2067	-754.31604	749.46674	823.40161	-815.76318	329.06134	9.6502151	-147.07372
690	6.89	522.20447	993.20807	-645.48682	519.38831	1061.5302	-655.05109	350.3923	1440.0842	-745.27081	509.0354	1378.7742	-854.99591	687.72632	1433.2487	-768.45428	505.49722	1495.2577	-727.47168	634.37317	946.97327	-883.11383	357.71414	972.39105	-858.1618	602.54712	740.03613	-909.18561	671.45453	637.59686	-822.56366	590.13977	575.46204	-885.31726	652.71863	485.60403	-835.46857	596.0094	485.9552	-876.35419	544.74048	462.95819	-812.9035	364.65598	748.80243	-890.40759	299.32458	650.51849	-783.23181	347.59814	557.2157	-858.21021	350.54877	487.51419	-850.74231	399.36115	489.78226	-818.84229	299.27167	509.9429	-804.84265	332.59518	419.99762	-824.96466	266.31235	315.55554	-733.20337	322.26852	194.45047	-781.99951	365.33566	96.492126	-741.77203	277.48294	85.289047	-717.85034	611.25397	398.9426	-844.48138	689.33008	304.14478	-775.69928	624.04419	203.43033	-799.92297	669.39929	85.121765	-735.66095	577.25952	106.00715	-748.97162	625.1485	43.89378	-652.84277	630.58032	97.702698	-827.849	684.31287	36.97575	-747.47565	696.01263	31.716871	-833.95221	576.88318	29.240694	-859.29742	639.12286	44.67374	-950.97571	333.6763	38.344498	-650.96185	263.90079	35.283539	-735.40021	242.35204	33.503483	-830.59167	300.62244	96.259819	-813.91791	291.41461	45.288811	-944.93842	357.26596	27.312944	-855.72241	241.15128	1081.8088	-741.8288	239.05998	825.47687	-785.54681	776.49176	1075.1927	-754.32867	749.4635	823.39392	-815.77936	329.06543	9.6693659	-147.0708
